<svg id="visual" viewBox="0 0 900 600" width="900" height="600" xmlns="http://www.w3.org/2000/svg" xmlns:xlink="http://www.w3.org/1999/xlink" version="1.1"><rect width="900" height="600" fill="#931F1F"></rect><g><g transform="translate(268 282)"><path d="M50 -58.8C62.1 -49.5 67.2 -31.1 66.4 -14.8C65.7 1.6 59.1 15.9 51.8 31.3C44.6 46.6 36.7 62.8 23.5 69.9C10.4 76.9 -8 74.7 -24.2 68.1C-40.5 61.6 -54.6 50.6 -62.6 36.4C-70.5 22.1 -72.3 4.5 -68.4 -11.1C-64.5 -26.8 -55 -40.5 -42.7 -49.7C-30.3 -58.9 -15.2 -63.7 1.9 -65.9C19 -68.2 38 -68 50 -58.8Z" stroke="#F7760E" fill="none" stroke-width="20"></path></g><g transform="translate(334 599)"><path d="M28.8 -34.3C38.2 -26.5 47.3 -18.2 47.2 -9.7C47 -1.2 37.6 7.5 31.5 18.4C25.5 29.3 22.8 42.3 14.8 48.9C6.7 55.4 -6.7 55.4 -17.3 50.3C-27.8 45.2 -35.4 35 -38.2 24.7C-40.9 14.4 -38.7 4 -38.2 -8C-37.6 -20 -38.6 -33.6 -32.5 -42C-26.4 -50.4 -13.2 -53.6 -1.7 -51.5C9.7 -49.4 19.4 -42.1 28.8 -34.3Z" stroke="#F7760E" fill="none" stroke-width="20"></path></g><g transform="translate(840 464)"><path d="M38.5 -46.9C49.9 -36.4 59.2 -24.2 62 -10.6C64.8 3.1 61.2 18.2 53.7 30.7C46.1 43.2 34.5 53.1 21.3 57.5C8.1 61.9 -6.8 60.8 -19.2 55.2C-31.5 49.6 -41.3 39.6 -46.3 28.1C-51.3 16.6 -51.5 3.8 -50.2 -9.8C-48.9 -23.3 -46.2 -37.5 -37.6 -48.5C-28.9 -59.6 -14.5 -67.4 -0.4 -66.8C13.6 -66.3 27.2 -57.4 38.5 -46.9Z" stroke="#F7760E" fill="none" stroke-width="20"></path></g><g transform="translate(550 410)"><path d="M22.3 -28.5C26.4 -23.2 25.3 -13.7 26.2 -5.1C27.2 3.5 30.2 11.3 28 17.1C25.8 22.9 18.5 26.8 10.9 29.1C3.4 31.4 -4.3 32.2 -12 30.5C-19.6 28.7 -27.1 24.4 -29.1 18.2C-31.1 12 -27.5 3.9 -25.8 -4.3C-24.1 -12.5 -24.2 -20.8 -20.2 -26C-16.2 -31.3 -8.1 -33.6 0.5 -34.3C9.1 -34.9 18.3 -33.8 22.3 -28.5Z" stroke="#F7760E" fill="none" stroke-width="20"></path></g><g transform="translate(849 128)"><path d="M27.9 -32.6C35.9 -26.5 41.9 -17.5 43.5 -7.8C45.1 2 42.3 12.4 36.4 19.4C30.4 26.5 21.4 30.2 12.2 33.4C3.1 36.6 -6.1 39.3 -17.7 39.2C-29.3 39 -43.2 36 -48.5 27.6C-53.8 19.3 -50.3 5.5 -47.2 -7.6C-44 -20.7 -41.1 -33.2 -33.3 -39.3C-25.5 -45.4 -12.8 -45.2 -1.4 -43.5C9.9 -41.9 19.9 -38.7 27.9 -32.6Z" stroke="#F7760E" fill="none" stroke-width="20"></path></g><g transform="translate(124 123)"><path d="M17.5 -20.7C23.4 -16 29.3 -11.1 31.4 -4.7C33.5 1.7 31.9 9.6 28.1 16.2C24.3 22.8 18.2 28.1 10.7 32.1C3.1 36.1 -6 38.8 -14.8 37.1C-23.6 35.4 -32 29.4 -35.5 21.4C-38.9 13.5 -37.4 3.6 -35 -5.5C-32.7 -14.6 -29.5 -23 -23.5 -27.7C-17.5 -32.4 -8.8 -33.4 -1.5 -31.7C5.8 -30 11.7 -25.4 17.5 -20.7Z" stroke="#F7760E" fill="none" stroke-width="20"></path></g><g transform="translate(493 185)"><path d="M41.9 -52.9C50.1 -43 49.8 -25.8 49.6 -11.1C49.4 3.6 49.3 16 45.4 29.4C41.5 42.9 33.8 57.3 21 65.1C8.3 72.9 -9.5 74 -21.6 66.5C-33.6 59 -39.8 42.8 -45.1 28.5C-50.3 14.3 -54.6 1.9 -53.4 -10.1C-52.1 -22.2 -45.2 -33.9 -35.4 -43.6C-25.6 -53.2 -12.8 -60.7 2 -63.1C16.8 -65.5 33.6 -62.8 41.9 -52.9Z" stroke="#F7760E" fill="none" stroke-width="20"></path></g><g transform="translate(132 539)"><path d="M26 -33.7C33 -25.1 37.5 -16.3 38.1 -7.5C38.7 1.2 35.3 9.8 30.4 16.8C25.5 23.8 19 29.1 11.2 32.7C3.5 36.3 -5.6 38.2 -15.7 37.1C-25.9 36.1 -37.1 32 -40.3 24.3C-43.5 16.7 -38.6 5.4 -34.9 -4.5C-31.1 -14.3 -28.6 -22.7 -23 -31.5C-17.4 -40.3 -8.7 -49.6 0.4 -50C9.5 -50.5 19 -42.2 26 -33.7Z" stroke="#F7760E" fill="none" stroke-width="20"></path></g><g transform="translate(597 39)"><path d="M24.7 -32.5C31.3 -23.8 35.6 -15.4 39.9 -5C44.1 5.4 48.3 17.9 45.4 29.4C42.5 40.9 32.6 51.5 21 54.3C9.4 57.1 -3.9 52 -14.8 45.8C-25.8 39.7 -34.5 32.3 -38.7 23.2C-42.9 14.2 -42.5 3.4 -42.6 -9.5C-42.7 -22.4 -43.3 -37.4 -36.3 -46C-29.3 -54.6 -14.6 -56.7 -2.8 -53.4C9 -50 18 -41.1 24.7 -32.5Z" stroke="#F7760E" fill="none" stroke-width="20"></path></g><g transform="translate(717 328)"><path d="M27.2 -29.9C38.6 -22.9 53.4 -17.5 56.7 -8.5C60.1 0.5 52 12.9 44.5 25.5C37 38 30 50.7 19.4 55.5C8.8 60.2 -5.4 57.1 -14.7 49.7C-24.1 42.3 -28.5 30.7 -32 20.5C-35.5 10.3 -38 1.6 -39.4 -9.8C-40.8 -21.2 -41.1 -35.2 -34.3 -43.1C-27.6 -50.9 -13.8 -52.6 -2.9 -49.1C7.9 -45.6 15.9 -37 27.2 -29.9Z" stroke="#F7760E" fill="none" stroke-width="20"></path></g></g></svg>